<?xml version="1.0" standalone="no"?>
<!DOCTYPE svg PUBLIC "-//W3C//DTD SVG 20010904//EN"
 "http://www.w3.org/TR/2001/REC-SVG-20010904/DTD/svg10.dtd">
<svg version="1.0" xmlns="http://www.w3.org/2000/svg"
 width="300.000000pt" height="300.000000pt" viewBox="0 0 300.000000 300.000000"
 preserveAspectRatio="xMidYMid meet">
<g transform="translate(0.000000,300.000000) scale(0.100000,-0.100000)"
fill="#686d2b" stroke="none">
<path d="M1315 2969 c-194 -31 -306 -65 -465 -142 -76 -37 -217 -120 -230
-136 -3 -3 -23 -19 -44 -35 -21 -16 -71 -61 -111 -100 -213 -210 -340 -438
-415 -746 -40 -164 -39 -457 1 -625 20 -84 81 -260 111 -324 149 -311 430
-583 740 -715 21 -9 53 -22 70 -30 34 -15 140 -46 218 -64 203 -48 518 -37
725 26 335 102 625 319 817 610 135 206 205 401 238 662 32 267 -23 560 -157
825 -25 50 -124 206 -146 231 -7 8 -37 42 -67 76 -30 35 -83 88 -118 118 -34
30 -68 60 -76 67 -35 31 -207 138 -273 169 -125 59 -270 104 -408 125 -90 14
-342 19 -410 8z m440 -48 c28 -7 68 -17 90 -23 163 -39 355 -127 494 -227 137
-97 312 -284 382 -408 53 -92 99 -181 114 -223 9 -25 21 -54 25 -65 5 -11 11
-31 15 -45 3 -14 12 -47 19 -75 33 -121 41 -195 40 -365 -1 -169 -8 -229 -45
-365 -6 -22 -13 -52 -16 -68 -3 -15 -9 -30 -14 -33 -5 -3 -9 -13 -9 -22 0 -33
-118 -258 -181 -346 -83 -116 -212 -244 -330 -328 -90 -64 -274 -163 -349
-187 -19 -6 -57 -18 -85 -27 -27 -9 -75 -20 -105 -26 -30 -5 -77 -14 -105 -19
-56 -10 -309 -13 -376 -4 -72 10 -169 33 -284 68 -76 23 -277 121 -329 160 -6
4 -38 27 -71 51 -92 66 -181 151 -262 254 -232 290 -339 640 -312 1015 14 183
56 339 136 507 145 303 374 534 668 674 91 44 129 60 200 84 60 21 172 45 245
52 108 12 386 6 445 -9z"/>
<path d="M1434 2895 c-5 -11 0 -23 12 -34 17 -14 19 -26 16 -88 -3 -60 -7 -72
-23 -76 -13 -3 -17 -11 -13 -21 5 -12 20 -16 63 -16 32 0 83 -5 115 -11 32 -6
59 -9 61 -7 2 2 5 26 6 53 4 44 2 50 -17 53 -14 2 -24 -5 -32 -22 -12 -28 -43
-40 -78 -32 -18 5 -24 13 -24 36 0 38 15 46 37 20 26 -30 33 -25 33 23 0 52
-8 64 -27 37 -19 -27 -43 -26 -43 3 0 62 58 72 99 17 30 -41 51 -30 51 26 l0
44 -84 0 c-46 0 -97 3 -115 6 -24 5 -32 2 -37 -11z"/>
<path d="M1247 2884 c-6 -7 -72 -22 -142 -33 -23 -3 -40 -11 -39 -18 1 -7 2
-31 3 -54 1 -36 4 -40 23 -37 16 2 24 12 28 32 5 29 33 56 46 43 4 -3 9 -29
12 -57 2 -28 9 -53 13 -56 15 -9 10 -44 -7 -44 -10 0 -14 -7 -12 -22 2 -13 9
-22 18 -21 32 3 111 21 116 25 10 11 -9 38 -27 38 -11 0 -19 7 -19 17 0 19
-18 80 -32 107 -8 15 -6 23 7 32 21 15 51 1 58 -28 5 -19 32 -24 42 -8 3 5 1
28 -6 50 -11 36 -16 40 -44 40 -17 0 -34 -3 -38 -6z"/>
<path d="M1880 2828 c-5 -13 -22 -39 -39 -58 -25 -29 -31 -32 -45 -21 -13 11
-17 11 -22 -3 -3 -9 -3 -27 0 -41 6 -22 3 -25 -19 -25 -14 0 -26 -4 -26 -10
-1 -5 -2 -15 -3 -21 -1 -9 64 -38 87 -39 12 0 8 48 -5 54 -9 3 -7 9 6 20 11 9
24 12 30 7 6 -4 23 -11 39 -15 32 -8 39 -46 8 -46 -10 0 -22 -7 -25 -15 -6
-16 14 -27 70 -41 13 -3 27 -10 30 -15 8 -14 21 -11 28 7 4 10 -1 25 -10 36
-16 17 -16 19 5 39 22 21 20 39 -5 39 -11 0 -14 16 -14 69 0 68 -1 70 -32 85
-41 21 -47 20 -58 -6z m30 -93 c0 -35 -5 -40 -34 -29 -21 8 -20 40 2 53 27 16
32 13 32 -24z"/>
<path d="M2165 2698 c4 -28 0 -39 -30 -73 -19 -22 -35 -46 -35 -53 0 -8 -8
-10 -25 -6 -42 10 -45 -24 -4 -57 38 -31 49 -29 49 7 0 26 26 74 41 74 14 0
10 -64 -6 -104 -14 -33 -14 -37 0 -42 8 -4 22 -1 31 6 40 34 134 71 134 54 0
-11 -58 -73 -63 -67 -9 9 -47 -8 -47 -21 0 -6 14 -20 30 -30 17 -9 39 -27 50
-38 16 -17 22 -19 35 -8 19 16 19 40 0 40 -22 0 -19 8 18 54 19 23 39 51 46
64 10 19 15 21 27 11 11 -9 17 -9 29 1 22 18 19 25 -24 53 l-40 27 -43 -22
c-24 -11 -55 -27 -70 -34 -14 -8 -31 -14 -37 -14 -11 0 -5 86 10 134 8 26 6
33 -18 53 -16 12 -36 22 -46 23 -15 0 -17 -6 -12 -32z"/>
<path d="M963 2689 c-6 -6 -28 -16 -49 -24 -40 -13 -51 -30 -35 -54 7 -11 21
-7 74 18 54 26 64 35 60 51 -6 22 -32 27 -50 9z"/>
<path d="M710 2671 c0 -6 -30 -32 -67 -60 -99 -73 -98 -72 -82 -85 8 -6 19
-20 25 -31 18 -33 39 -25 36 14 -2 25 4 39 23 57 46 42 52 32 36 -53 -21 -109
-22 -130 -2 -154 l19 -23 38 34 c22 20 63 51 92 69 57 37 59 42 37 68 -8 10
-20 26 -28 36 -21 30 -49 12 -42 -27 5 -23 1 -39 -15 -59 -27 -34 -56 -37 -45
-4 4 12 10 61 12 109 4 70 2 91 -10 103 -18 17 -27 19 -27 6z"/>
<path d="M1317 2584 c-6 -7 -47 -16 -135 -31 -18 -3 -35 -9 -38 -14 -3 -5 -12
-9 -20 -9 -9 0 -50 -16 -92 -37 -290 -138 -513 -403 -592 -703 -6 -25 -16 -61
-22 -80 -14 -45 -14 -375 0 -420 6 -19 16 -55 23 -80 21 -80 33 -114 67 -183
70 -147 203 -313 317 -395 28 -20 52 -39 55 -42 19 -20 221 -120 242 -120 9 0
19 -4 22 -9 3 -5 18 -11 33 -14 16 -4 51 -11 78 -18 73 -17 378 -23 445 -9
107 24 211 60 292 102 46 23 85 46 86 50 2 4 9 8 16 8 13 0 131 94 181 145 35
34 133 158 155 195 34 58 100 196 100 210 0 9 4 20 8 26 5 5 14 36 21 69 7 33
17 73 22 89 15 49 11 313 -6 391 -9 39 -18 85 -22 103 -3 18 -10 35 -14 38 -5
3 -9 13 -9 22 0 16 -64 152 -100 212 -23 37 -121 161 -155 195 -16 17 -52 48
-80 70 -27 22 -52 43 -55 46 -3 4 -23 17 -45 29 -172 98 -220 118 -365 152
-52 13 -402 22 -413 12z m443 -65 c293 -77 517 -252 671 -525 64 -115 108
-277 114 -419 2 -67 1 -92 -3 -65 -10 57 -23 80 -67 119 -50 43 -113 44 -176
1 -43 -29 -109 -41 -109 -20 0 5 13 24 28 42 60 71 162 261 162 303 0 29 -64
-63 -108 -155 -27 -58 -53 -93 -117 -156 l-82 -82 104 3 c88 2 108 6 126 23
50 45 92 52 141 23 32 -18 64 -65 65 -94 1 -9 -5 -26 -11 -37 -10 -16 -10 -24
0 -40 16 -26 15 -40 -3 -77 -25 -51 -52 -68 -105 -68 -40 0 -54 5 -78 28 l-29
27 -259 1 -259 0 -7 -48 c-18 -120 -20 -163 -9 -194 l11 -33 -93 -91 -93 -90
6 -96 c4 -82 8 -100 26 -115 12 -11 27 -34 34 -51 15 -40 0 -86 -39 -120 -23
-21 -37 -23 -124 -23 -88 0 -100 2 -121 22 -64 64 -68 103 -16 158 30 32 30
34 30 140 l0 108 -75 69 -75 70 0 93 c0 52 -5 120 -12 152 l-12 58 -247 0
-246 0 -19 -25 c-23 -30 -74 -49 -113 -40 -15 3 -41 20 -57 36 -28 29 -29 33
-29 131 l0 100 39 34 c51 44 88 45 138 4 33 -28 44 -30 127 -34 50 -2 91 0 91
4 0 3 -12 13 -26 21 -45 24 -150 148 -185 218 -19 36 -36 68 -39 71 -26 25
-60 83 -60 103 0 33 88 166 158 240 114 119 273 221 422 272 75 25 197 51 205
43 3 -3 -13 -24 -36 -47 -41 -40 -41 -42 -37 -100 3 -44 11 -68 31 -94 25 -33
27 -43 27 -125 0 -85 -1 -89 -25 -100 -43 -20 -129 -88 -156 -123 -34 -44 -62
-101 -84 -169 -10 -30 -19 -56 -20 -58 -1 -1 -31 7 -66 19 -106 34 -189 85
-278 169 -47 44 -93 80 -103 80 -17 0 -17 -1 0 -18 9 -10 34 -39 55 -65 69
-84 186 -160 302 -197 22 -7 56 -19 77 -27 37 -16 63 -10 55 11 -7 17 18 109
43 159 38 76 159 187 204 187 24 0 27 15 27 132 1 98 -2 115 -19 133 -38 40
-55 85 -42 114 14 33 39 62 68 79 26 14 78 16 87 2 4 -7 12 -7 25 0 49 26 124
-8 150 -69 15 -38 8 -70 -26 -111 -25 -29 -26 -37 -28 -145 -1 -110 0 -114 22
-125 13 -5 28 -10 33 -10 17 0 99 -60 135 -98 48 -51 91 -141 99 -206 8 -65
16 -73 47 -52 12 9 31 16 40 16 10 0 26 4 36 9 9 5 31 14 47 21 81 33 104 49
186 129 79 77 120 131 99 131 -7 0 -54 -41 -105 -90 -74 -72 -110 -98 -170
-125 -42 -19 -90 -36 -107 -38 -30 -2 -32 1 -48 53 -9 31 -29 77 -44 102 -34
59 -127 145 -189 177 l-47 24 0 83 c0 75 3 87 31 133 27 43 31 57 27 96 -6 53
-42 104 -90 129 l-33 17 65 -6 c36 -4 99 -15 140 -26z m-1186 -610 c35 -79
105 -195 145 -241 65 -73 48 -91 -36 -38 -74 47 -152 37 -201 -25 -27 -34 -32
-32 -32 14 0 74 77 331 99 331 4 0 15 -18 25 -41z m1952 -642 c-39 -189 -145
-378 -294 -524 -121 -119 -276 -209 -443 -256 -91 -26 -189 -41 -189 -28 0 4
12 18 26 32 63 59 70 121 22 195 -29 44 -32 57 -33 122 l0 72 78 78 c43 42 82
84 87 92 5 8 10 68 10 132 0 108 2 118 20 128 14 7 95 10 238 8 l217 -3 39
-27 c68 -49 165 -31 211 38 25 39 28 23 11 -59z m-1935 -7 c51 0 119 29 119
51 0 15 447 12 457 -3 4 -7 9 -60 11 -118 1 -58 5 -116 8 -129 3 -13 38 -58
79 -101 l75 -79 0 -80 c0 -45 -4 -81 -8 -81 -18 0 -52 -79 -52 -120 0 -47 11
-73 48 -112 l26 -28 -25 0 c-62 1 -208 47 -304 97 -278 143 -477 390 -551 683
-22 92 -20 98 26 56 35 -31 46 -36 91 -36z"/>
<path d="M1374 2448 c-37 -30 -33 -79 11 -119 l35 -32 0 -127 c0 -110 -2 -129
-18 -143 -10 -10 -26 -17 -36 -17 -16 0 -97 -50 -121 -75 -56 -56 -105 -161
-105 -225 0 -54 -10 -80 -31 -80 -10 0 -21 5 -24 10 -3 6 -16 10 -27 10 -31 0
-93 20 -180 59 -26 12 -51 21 -55 21 -5 0 -30 18 -58 40 -27 21 -51 37 -54 35
-6 -7 77 -113 123 -157 22 -21 65 -55 94 -74 28 -19 52 -39 52 -43 0 -4 -64
-9 -142 -10 l-141 -2 -34 33 c-42 40 -95 44 -124 9 -22 -26 -25 -71 -7 -89 9
-9 9 -15 0 -24 -20 -20 -14 -72 11 -96 36 -34 78 -29 116 13 l31 35 265 0 265
0 12 -27 c6 -16 13 -59 16 -98 3 -45 7 -61 11 -46 14 53 41 23 75 -82 8 -26
36 -21 36 6 0 13 3 27 7 31 4 4 17 30 28 59 l21 51 56 2 57 2 34 -81 c32 -73
57 -108 57 -77 0 6 9 30 20 52 11 23 20 48 20 55 0 17 16 17 23 -1 3 -8 3 -48
0 -91 l-6 -76 -71 -65 c-39 -35 -82 -80 -96 -99 -23 -32 -60 -47 -60 -25 0 6
-45 55 -101 109 -94 92 -101 101 -94 129 3 18 2 33 -4 37 -7 4 -11 -10 -11
-41 0 -46 2 -50 80 -125 62 -60 80 -83 81 -105 0 -16 2 -68 5 -115 l5 -86 -36
-27 c-45 -35 -49 -84 -9 -121 30 -28 54 -31 84 -13 16 10 24 10 40 0 29 -17
45 -15 76 11 39 34 37 78 -4 120 -32 33 -32 33 -32 141 l0 108 85 81 85 81 0
109 c0 103 12 179 32 202 6 6 114 10 281 11 l271 1 30 -33 c34 -39 77 -45 113
-15 19 16 22 28 22 109 0 87 -2 93 -27 113 -35 27 -79 19 -112 -21 l-25 -30
-162 0 c-90 0 -163 4 -163 8 0 5 17 18 38 29 72 41 237 221 219 239 -3 3 -18
-6 -34 -21 -53 -51 -228 -122 -313 -128 l-35 -2 -6 60 c-3 33 -9 69 -13 80
-25 64 -43 94 -82 135 -41 43 -70 62 -166 103 l-38 17 0 131 0 130 36 35 c32
29 36 38 30 66 -10 53 -25 61 -121 63 -72 1 -91 -2 -111 -17z m91 -18 c4 -7
12 -7 25 0 28 15 61 12 76 -7 21 -28 16 -51 -16 -75 l-30 -22 0 -143 0 -143
-40 0 -40 0 0 139 0 139 -30 23 c-32 25 -40 65 -18 87 15 15 64 16 73 2z m88
-429 c6 -6 19 -11 28 -11 32 0 101 -45 145 -93 47 -53 79 -125 89 -204 7 -60
11 -57 -100 -67 -33 -3 -86 -8 -118 -12 -47 -6 -61 -4 -77 11 -11 10 -20 26
-20 37 0 29 -16 21 -40 -18 l-21 -37 -77 8 c-42 4 -104 11 -137 14 l-60 6 -3
38 c-4 49 22 130 61 190 33 49 134 127 166 127 9 0 21 4 27 9 21 21 117 22
137 2z m-668 -321 c31 -16 65 -30 74 -30 9 0 21 -4 27 -8 10 -10 77 -24 199
-44 106 -17 473 -17 590 0 132 19 257 56 322 94 19 11 37 17 41 14 6 -7 -9
-22 -78 -79 -40 -33 -160 -107 -175 -107 -7 0 -17 -4 -20 -10 -3 -5 -17 -10
-30 -10 -13 0 -26 -4 -29 -9 -3 -5 -23 -12 -43 -15 -200 -32 -300 -36 -453
-18 -113 14 -148 21 -156 33 -3 5 -14 9 -25 9 -10 0 -27 4 -37 9 -9 5 -30 15
-47 22 -60 28 -235 156 -235 173 0 12 18 6 75 -24z m-243 -150 l22 -30 187 0
c170 0 191 -2 235 -22 27 -12 62 -24 78 -27 16 -4 31 -12 34 -19 3 -9 -58 -12
-266 -12 l-271 0 -21 -30 c-23 -32 -60 -40 -77 -17 -12 14 -11 156 1 175 14
23 54 13 78 -18z m1780 13 c21 -19 23 -36 6 -63 -10 -16 -10 -24 0 -40 16 -26
15 -40 -5 -62 -24 -27 -58 -22 -83 12 l-21 30 -280 0 c-249 0 -279 2 -265 15
8 8 19 15 24 15 6 0 32 10 59 22 44 19 65 21 251 22 l203 1 27 32 c30 36 56
41 84 16z m-682 -104 c0 -6 -14 -24 -30 -39 -28 -26 -31 -27 -40 -10 -16 30
-12 39 23 49 44 13 47 13 47 0z m-446 -5 c16 -6 22 -35 10 -47 -10 -9 -64 25
-64 40 0 14 28 17 54 7z m356 -66 c0 -11 -8 -18 -19 -18 -11 0 -23 -4 -26 -10
-3 -5 -15 -10 -26 -10 -14 0 -19 7 -20 30 -1 17 -2 36 -3 42 -1 7 13 15 29 19
33 6 64 -20 65 -53z m-232 5 c3 -48 -1 -50 -55 -31 -28 10 -33 17 -33 46 0 33
0 33 43 30 42 -3 42 -3 45 -45z m102 12 c0 -13 5 -27 10 -30 24 -15 6 -25 -41
-25 -48 0 -51 1 -45 23 3 12 6 30 6 39 0 11 10 18 28 20 36 5 42 1 42 -27z
m-170 -71 c19 -10 37 -20 39 -21 5 -3 -33 -82 -40 -83 -3 0 -11 11 -17 25 -6
14 -16 25 -21 25 -14 0 -41 59 -41 88 l0 25 23 -20 c12 -11 38 -29 57 -39z
m340 13 c0 -29 -72 -125 -79 -106 -2 8 -12 26 -22 41 -24 33 -24 38 0 38 10 0
33 11 52 24 43 31 49 31 49 3z m-230 -468 c0 -7 10 -9 24 -7 22 4 24 1 30 -55
3 -33 6 -75 6 -94 0 -26 7 -41 30 -60 17 -13 30 -33 30 -43 0 -22 -37 -51 -56
-43 -7 2 -41 5 -76 6 -63 2 -63 2 -66 33 -3 26 3 36 27 54 l31 21 0 100 c0 59
4 99 10 99 6 0 10 -5 10 -11z"/>
<path d="M1220 1735 c0 -8 18 -26 39 -40 30 -20 49 -26 82 -23 58 4 61 24 4
31 -25 4 -63 16 -85 27 -33 17 -40 18 -40 5z"/>
<path d="M1715 1731 c-17 -10 -52 -21 -78 -25 -30 -5 -47 -12 -44 -19 10 -30
93 -18 137 19 49 42 39 58 -15 25z"/>
<path d="M421 986 c-8 -10 -9 -16 -1 -21 18 -11 11 -22 -22 -38 -18 -9 -49
-27 -68 -42 l-35 -25 -15 21 c-15 18 -18 19 -29 5 -9 -11 -10 -20 -3 -28 5 -7
22 -35 37 -63 15 -27 39 -62 53 -77 43 -47 107 -31 114 27 2 25 7 29 26 27 31
-5 62 24 62 56 0 14 -15 48 -32 76 -18 27 -37 59 -43 70 -13 26 -29 30 -44 12z
m59 -107 c26 -47 -9 -89 -44 -54 -20 21 -21 55 -1 55 8 0 15 5 15 10 0 17 19
11 30 -11z m-80 -60 c30 -56 -17 -90 -60 -44 l-25 26 25 19 c32 25 47 25 60
-1z"/>
<path d="M2517 963 c-4 -3 -7 -12 -7 -19 0 -7 -11 -30 -25 -50 -36 -53 -34
-99 5 -119 27 -14 34 -14 63 0 18 8 44 26 59 40 31 28 68 33 68 9 0 -28 -40
-74 -64 -74 -13 0 -29 -7 -36 -15 -10 -12 -8 -18 11 -35 28 -23 64 -22 64 2 0
9 10 27 21 40 12 13 27 33 33 45 15 29 14 86 -1 101 -22 22 -81 14 -113 -14
-55 -48 -75 -58 -88 -45 -17 17 12 65 43 69 27 4 50 19 50 32 0 8 -56 40 -70
40 -4 0 -10 -3 -13 -7z"/>
<path d="M2380 763 c0 -5 -32 -42 -70 -83 -69 -74 -83 -108 -38 -97 30 8 137
-95 120 -116 -10 -11 -9 -17 1 -26 11 -9 31 6 95 68 72 70 100 111 74 111 -5
0 -15 11 -22 25 -16 30 -35 32 -49 7 -7 -14 -6 -25 4 -39 12 -17 11 -23 -11
-51 -29 -37 -44 -40 -68 -13 -23 25 -12 43 20 35 32 -8 32 15 1 44 -31 30 -51
29 -43 -2 8 -32 -18 -42 -44 -16 -26 26 -25 32 4 59 20 19 31 22 60 17 34 -6
36 -5 36 19 0 14 -6 25 -13 25 -7 0 -19 9 -27 20 -14 20 -30 27 -30 13z"/>
<path d="M575 750 c-4 -6 -1 -18 6 -27 11 -13 6 -22 -39 -64 -44 -41 -57 -48
-81 -43 -17 4 -32 1 -36 -6 -9 -15 43 -70 66 -70 9 0 45 27 79 60 61 58 80 71
80 50 0 -15 30 -12 36 4 6 15 -75 106 -94 106 -6 0 -14 -5 -17 -10z"/>
<path d="M705 620 c-3 -5 0 -18 6 -29 11 -16 7 -25 -30 -67 -29 -34 -52 -51
-74 -54 -39 -6 -41 -26 -5 -53 39 -29 66 -16 122 58 49 65 59 74 71 55 7 -12
35 5 35 20 0 10 -96 80 -109 80 -6 0 -12 -4 -16 -10z"/>
<path d="M2180 565 c-6 -8 -46 -34 -88 -59 -43 -25 -83 -49 -90 -53 -18 -12
25 -95 47 -91 12 3 15 13 13 39 -3 45 24 75 42 46 6 -10 26 -41 43 -68 28 -42
31 -53 21 -69 -22 -35 4 -45 44 -18 20 13 43 28 52 33 23 13 11 45 -16 42 -11
-1 -25 7 -32 18 -6 11 -24 37 -39 58 -16 20 -26 44 -23 52 6 16 56 21 56 6 0
-15 32 -22 46 -10 11 9 8 18 -18 50 -35 43 -40 46 -58 24z"/>
<path d="M999 434 c-11 -14 -10 -18 9 -33 l22 -16 -20 -42 c-11 -23 -20 -50
-20 -60 0 -28 -13 -40 -39 -39 -35 2 -38 -22 -4 -35 15 -6 42 -18 60 -26 35
-17 63 -12 63 11 0 7 -9 16 -20 19 -23 6 -27 35 -5 43 8 4 21 2 28 -4 6 -6 29
-13 49 -17 34 -6 41 -4 68 25 40 42 40 80 0 113 -16 14 -38 28 -47 30 -87 24
-113 32 -113 39 0 13 -17 9 -31 -8z m146 -84 c16 -18 17 -23 5 -45 -10 -19
-21 -25 -46 -25 -41 0 -48 11 -34 55 14 41 46 47 75 15z"/>
<path d="M1842 403 c-19 -4 -23 -10 -21 -36 5 -78 -1 -109 -21 -114 -26 -7
-25 -27 3 -46 22 -14 22 -15 3 -36 -30 -33 -9 -48 44 -32 46 14 53 37 14 51
-22 9 -24 13 -14 25 19 23 88 41 102 27 9 -9 7 -16 -5 -29 -10 -12 -13 -23 -7
-33 7 -12 14 -11 47 2 21 9 46 19 56 22 25 8 21 34 -5 38 -18 2 -23 10 -23 33
0 25 -4 29 -21 27 -15 -2 -33 12 -64 53 -23 30 -48 54 -54 54 -6 -1 -21 -4
-34 -6z m68 -118 c0 -12 -21 -25 -41 -25 -10 0 -12 53 -2 63 8 9 43 -22 43
-38z"/>
<path d="M1272 358 c-18 -18 -15 -27 14 -38 20 -8 24 -14 18 -28 -4 -9 -10
-43 -12 -74 -3 -53 -6 -58 -28 -58 -17 0 -24 -6 -24 -19 0 -16 9 -21 48 -26
26 -4 55 -9 65 -12 26 -7 35 28 10 44 -18 12 -19 18 -9 86 10 64 14 72 34 75
39 6 23 36 -23 43 -22 3 -49 8 -60 12 -12 4 -26 2 -33 -5z"/>
<path d="M1498 343 c-50 -3 -58 -7 -58 -23 0 -13 7 -20 20 -20 25 0 27 -6 34
-92 4 -53 2 -68 -8 -68 -19 0 -36 -23 -28 -36 11 -16 132 -5 132 12 0 7 -8 18
-19 23 -25 14 -33 48 -13 56 12 4 31 -10 63 -44 48 -52 55 -56 83 -45 24 9 21
64 -2 64 -11 0 -34 8 -52 17 -31 15 -32 17 -15 27 60 35 72 81 29 115 -27 21
-34 22 -166 14z m113 -43 c24 -13 24 -32 0 -54 -27 -24 -65 -17 -69 12 -7 49
22 66 69 42z"/>
</g>
</svg>
